<?xml version="1.0" encoding="UTF-8"?>
<svg id="Layer_1" xmlns="http://www.w3.org/2000/svg" version="1.1" viewBox="0 0 1000 1000">
  <!-- Generator: Adobe Illustrator 29.5.0, SVG Export Plug-In . SVG Version: 2.1.0 Build 137)  -->
  <defs>
    <style>
      .st0 {
        fill: #fff;
      }

      .st1 {
        display: none;
      }
    </style>
  </defs>
  <g id="BG" class="st1">
    <rect width="1000" height="1000"/>
  </g>
  <g id="Guy">
    <path class="st0" d="M59,1000h519.61v-323.53c-120.03-170.3-402.34-174.07-516.45-.6l-3.16,324.13h0Z"/>
    <circle class="st0" cx="323.71" cy="254.9" r="254.9"/>
  </g>
  <g id="Hand">
    <path class="st0" d="M813.42,494.8l11.86-13.21-45.38-15.71-158.46-136.34c-9.28-8.96-1.9-28.55,7.43-38.94h0c8.68-9.67,20.17-7.2,29.96-.24,39.6,28.16,135.14,95.72,183.06,129.81,18.11,12.88,36.21,30.28,48.85,48.64l84.02,115.76c8.9,12.26,7.12,29.95-4.2,41.75l-117.19,122.14c-10.67,11.12-26.87,14.2-39.5,7.51l-140.98-74.63c-8.18-4.33-15.78-9.63-22.64-15.79l-9.86-8.85c-12.78-13.86,5.48-42.79,5.48-42.79l55.55,10.52,12.45-13.87-63.97-9.73c4.82-26.88,10.91-37.91,26.89-58.81l80.29,15.51,11.27-12.55-82.11-15.29c5.07-25.27,14.9-42.52,32.92-57.51,7.63-2.53,56.09,6.24,56.09,6.24l38.16,16.38h.01Z"/>
  </g>
</svg>