<?xml version="1.0" encoding="UTF-8"?>
<svg id="Layer_1" data-name="Layer 1" xmlns="http://www.w3.org/2000/svg" viewBox="0 0 999.23 729.01">
  <defs>
    <style>
      .cls-1 {
        fill: #fff;
      }
    </style>
  </defs>
  <path class="cls-1" d="M522.87,4.69l-261.87,161.85v-.42H17c-9.35,0-17,7.65-17,17v358c0,9.35,7.65,17,17,17h244v.42l262.1,161.08c14.25,8.76,25.9,2.24,25.9-14.48V19.26c0-16.9-11.76-23.45-26.13-14.57Z"/>
  <path class="cls-1" d="M581.27,203.99c8.04,8.78,15.75,17.86,23.03,27.28l-2.81-3.64c12.46,16.16,23.68,33.33,32.8,51.61,2.42,4.84,4.68,9.76,6.78,14.74l-1.81-4.3c5.72,13.6,10.2,27.73,13.06,42.21.79,3.97,1.45,7.97,1.99,11.98l-.64-4.79c1.75,13.13,2.17,26.42,1.18,39.63-.28,3.76-.68,7.51-1.18,11.24l.64-4.79c-1.95,14.39-5.5,28.54-10.39,42.21-1.44,4.04-3.01,8.03-4.67,11.98l1.81-4.3c-7.68,18.19-17.53,35.4-28.78,51.61-3.48,5.01-7.09,9.92-10.81,14.74l2.81-3.64c-7.28,9.42-14.99,18.5-23.03,27.28-3.21,3.5-5.27,7.9-5.27,12.73-.09,2.48.42,4.79,1.55,6.94.73,2.23,1.97,4.16,3.72,5.79,3.43,3.15,7.93,5.49,12.73,5.27s9.49-1.73,12.73-5.27c19.98-21.83,38.36-45.58,52.8-71.47,6.78-12.15,12.6-24.84,17.54-37.84,4.23-11.13,7.6-22.6,9.93-34.28,2.5-12.6,4.06-25.48,4.34-38.33.28-12.86-.92-25.63-2.9-38.33-3.93-25.2-12.91-49.5-24.56-72.13-13.25-25.74-30.59-49.32-49.57-71.1-2.49-2.86-5.02-5.68-7.58-8.48-1.63-1.76-3.56-3-5.79-3.72-2.15-1.13-4.46-1.64-6.94-1.55-2.48-.09-4.79.42-6.94,1.55-2.23.73-4.16,1.97-5.79,3.72-3.15,3.43-5.49,7.93-5.27,12.73s1.93,9.08,5.27,12.73h0Z"/>
  <path class="cls-1" d="M660.65,117.37c14.57,11.93,28.74,24.34,42.36,37.35,12.42,11.87,24.37,24.24,35.66,37.19,5.97,6.85,11.74,13.86,17.3,21.05l-2.81-3.64c14,18.14,26.6,37.42,36.85,57.93,2.7,5.41,5.24,10.89,7.59,16.46l-1.81-4.3c6.5,15.4,11.58,31.4,14.83,47.8.89,4.51,1.64,9.05,2.26,13.61l-.64-4.79c1.96,14.68,2.42,29.54,1.32,44.31-.31,4.23-.76,8.45-1.32,12.66l.64-4.79c-2.2,16.3-6.22,32.32-11.77,47.8-1.64,4.59-3.42,9.12-5.32,13.61l1.81-4.3c-8.64,20.42-19.73,39.73-32.37,57.93-3.88,5.59-7.92,11.07-12.08,16.46l2.81-3.64c-10.05,13-20.83,25.43-32.13,37.35-12.28,12.96-25.18,25.32-38.51,37.19-8.07,7.19-16.31,14.2-24.68,21.05-1.76,1.63-3,3.56-3.72,5.79-1.13,2.15-1.64,4.46-1.55,6.94-.09,2.48.42,4.79,1.55,6.94.73,2.23,1.97,4.16,3.72,5.79,3.43,3.15,7.93,5.49,12.73,5.27l4.79-.64c3.05-.86,5.7-2.4,7.94-4.63,19.56-16.02,38.44-32.92,56.16-50.96,16.73-17.03,32.28-35.14,46.53-54.29,11.97-16.08,22.78-33.06,31.82-50.96s16.28-35.96,21.34-54.95,7.58-36.78,8.1-55.43c.52-18.51-1.42-37.16-5.21-55.27-3.96-18.95-10.48-37.14-18.36-54.79-7.97-17.86-17.8-34.85-28.86-50.96-13.13-19.14-27.84-37.25-43.59-54.29-16.68-18.05-34.57-34.95-53.2-50.96-4.86-4.17-9.77-8.29-14.72-12.34-1.63-1.76-3.56-3-5.79-3.72-2.15-1.13-4.46-1.64-6.94-1.55-2.48-.09-4.79.42-6.94,1.55-2.23.73-4.16,1.97-5.79,3.72-3.15,3.43-5.49,7.93-5.27,12.73.2,4.49,1.64,9.75,5.27,12.73h0Z"/>
  <path class="cls-1" d="M743.67,33.56c2.23,1.7,4.46,3.41,6.68,5.12l-3.64-2.81c22.14,17.12,43.69,35.02,64.32,53.93,18.65,17.09,36.57,35.01,53.37,53.93,8.76,9.86,17.2,20,25.27,30.43l-2.81-3.64c9.01,11.67,17.55,23.71,25.47,36.15,7.44,11.7,14.33,23.75,20.52,36.16,3.36,6.73,6.51,13.56,9.43,20.49l-1.81-4.3c8.01,19.03,14.28,38.79,18.28,59.05,1.08,5.49,2,11.02,2.75,16.57l-.64-4.79c2.44,18.21,3.01,36.66,1.64,54.99-.39,5.19-.93,10.36-1.62,15.52l.64-4.79c-2.71,20.14-7.69,39.94-14.56,59.06-2.01,5.58-4.17,11.11-6.48,16.57l1.81-4.3c-5.17,12.22-11.05,24.13-17.52,35.71-6.86,12.27-14.37,24.17-22.4,35.71-4.77,6.85-9.72,13.58-14.82,20.19l2.81-3.64c-14.38,18.59-29.97,36.22-46.38,53.03-18.17,18.61-37.34,36.22-57.18,53.03-12.07,10.23-24.4,20.16-36.92,29.83l3.64-2.81c-3.28,2.53-6.56,5.04-9.86,7.53-2.1,1.13-3.78,2.68-5.05,4.64-1.59,1.74-2.66,3.78-3.22,6.12-.75,2.39-.86,4.79-.32,7.18.11,2.4.82,4.63,2.14,6.69,2.48,3.84,6.17,7.23,10.76,8.27l4.79.64c3.25-.01,6.28-.83,9.08-2.46,15.66-11.83,31.09-23.96,46.13-36.56,13.07-10.94,25.85-22.23,38.27-33.9,11.64-10.94,22.95-22.22,33.85-33.9,10.26-10.99,20.15-22.33,29.56-34.05,9.68-12.05,18.99-24.42,27.63-37.24,7.4-10.97,14.33-22.27,20.66-33.9,6.72-12.35,12.62-25.07,18.01-38.05,4.6-11.06,8.6-22.38,11.89-33.9s5.71-22.46,7.51-33.9c2-12.76,3.4-25.62,3.77-38.53.32-11.31-.09-22.64-1.23-33.9-1.3-12.89-3.28-25.75-6.17-38.38-2.63-11.54-5.99-22.9-9.97-34.05-4.61-12.9-9.99-25.57-15.97-37.89-5.63-11.6-11.87-22.9-18.61-33.9-7.17-11.69-14.9-23.03-23.07-34.05-9.48-12.78-19.44-25.22-29.88-37.24-10.14-11.67-20.71-22.95-31.62-33.89-11.68-11.72-23.76-23.05-36.13-34.04-13.12-11.66-26.58-22.94-40.3-33.89-8.03-6.41-16.15-12.71-24.33-18.93-2.07-1.32-4.3-2.03-6.69-2.14-2.39-.54-4.79-.43-7.18.32-2.34.56-4.38,1.63-6.12,3.22-1.96,1.27-3.5,2.95-4.64,5.05-2.21,4.18-3.31,9.24-1.81,13.87l1.81,4.3c1.6,2.7,3.75,4.86,6.46,6.46h0Z"/>
</svg>