<?xml version="1.0" encoding="UTF-8"?>
<svg xmlns="http://www.w3.org/2000/svg" viewBox="0 0 999 924.77">
  <defs>
    <style>
      .cls-1 {
        fill: #fff;
      }

      .cls-2 {
        fill: none;
        stroke: #fff;
        stroke-miterlimit: 10;
        stroke-width: 5px;
      }
    </style>
  </defs>
  <g id="Pen">
    <path class="cls-1" d="M509.6,134.59v445.98c21.8,3.51,38.46,22.4,38.46,45.2,0,25.29-20.5,45.79-45.79,45.79s-45.79-20.5-45.79-45.79c0-22.73,16.57-41.58,38.29-45.17V134.59c-28.2,183.36-108.51,367.92-238.09,553.61l61.74,236.57h351.04l61.74-236.57c-113.26-186.06-187.8-370.63-221.61-553.61Z"/>
  </g>
  <g id="Nodes">
    <rect class="cls-1" x="455.1" width="99.9" height="99.9"/>
    <rect class="cls-1" x="899.1" y="437.06" width="99.9" height="99.9"/>
    <rect class="cls-1" y="437.06" width="99.9" height="99.9"/>
    <path class="cls-2" d="M458.57,49.26c-265.5-.03-410.45,162.32-408.62,387.81"/>
    <path class="cls-2" d="M949.53,450.07c-5.73-265.44-171.18-406.84-396.58-400.11"/>
    <line class="cls-2" x1="99.21" y1="49.26" x2="899.8" y2="49.26"/>
    <circle class="cls-1" cx="56.19" cy="43.71" r="43.71"/>
    <circle class="cls-1" cx="942.81" cy="43.71" r="43.71"/>
  </g>
</svg>