<?xml version="1.0" encoding="UTF-8"?>
<svg id="Layer_1" data-name="Layer 1" xmlns="http://www.w3.org/2000/svg" viewBox="0 0 1000 706">
  <defs>
    <style>
      .cls-1 {
        fill: #fff;
      }
    </style>
  </defs>
  <path class="cls-1" d="M34.81,43.95L0,669.74c222.57,35.09,418.78-32.75,486.29,35.09V18.22C419.83-46.11,252.11,83.72,34.81,43.95ZM96.17,105.56l51.34,20.33c9.93,3.93,20.28,4.96,30.58,3.03l51.62-9.66c15.07-2.82,30.2-3.78,45.26-2.87l34.51,12.7c22.54,8.29,46.02,9.41,69.2,3.28l29.84-7.88-1.21,24.53-46.13,8.77c-12.79,2.43-25.64,1.84-38.16-1.76l-53.42-15.36c-12.3-.75-24.65-.16-36.97,1.74l-50.34,7.78c-15.7,2.43-31.43.78-46.6-4.89l-40.72-15.21,1.21-24.53ZM86.63,235.89l43.48-11.84c16.2-4.41,32.71-4.77,48.92-1.07l51.95,11.88c12.72,2.91,25.55,4.5,38.42,4.76l56.74-10.94c13.3-2.56,26.73-2.1,39.9,1.37l47.49,12.52-.41,24.56-30.57-10.3c-23.75-8-48.3-8.81-72.36-2.39l-36.84,9.84c-15.76-.32-31.47-2.52-46.98-6.56l-53.15-13.86c-10.61-2.77-21.46-2.59-32.08.52l-54.9,16.08.41-24.56ZM75.89,336.59l49.75-8.8c13.79-2.44,27.67-1.86,41.23,1.74l57.82,15.32c13.29.74,26.62.15,39.92-1.77l54.31-7.82c16.94-2.44,33.94-.8,50.38,4.86l44.1,15.19-1.11,24.53-55.61-20.3c-10.76-3.93-21.94-4.95-33.05-3.01l-55.67,9.7c-16.25,2.83-32.59,3.8-48.86,2.9l-37.38-12.67c-24.41-8.28-49.78-9.38-74.77-3.24l-32.16,7.9,1.11-24.53ZM63.43,454.35l48.24-11.74c17.98-4.38,36.3-4.7,54.3-.96l57.69,12c14.12,2.94,28.37,4.56,42.66,4.85l62.96-10.81c14.76-2.53,29.67-2.04,44.29,1.46l52.73,12.63-.41,24.56-33.95-10.37c-26.37-8.06-53.63-8.92-80.33-2.55l-40.87,9.75c-17.49-.36-34.93-2.59-52.16-6.67l-59.03-13.98c-11.78-2.79-23.83-2.64-35.61.45l-60.91,15.95.41-24.56ZM442.63,582.82l-52.7,10.79c-19.64,4.02-39.6,3.98-59.16-.11l-62.71-13.13c-15.35-3.21-30.85-5.11-46.42-5.69l-68.72,9.57c-16.11,2.24-32.35,1.46-48.23-2.33l-57.3-13.67.74-24.55,36.87,11.04c28.64,8.58,58.33,9.98,87.48,4.14l44.65-8.95c19.05.7,38.03,3.27,56.75,7.7l64.14,15.14c12.8,3.02,25.93,3.11,38.8.25l66.55-14.75-.74,24.55Z"/>
  <path class="cls-1" d="M513.71,19.39v686.61c67.51-67.84,263.71,0,486.29-35.09l-34.81-625.79c-217.3,39.77-385.02-90.07-451.48-25.73ZM905.04,131.26l-40.72,15.21c-15.17,5.67-30.9,7.32-46.6,4.89l-50.34-7.78c-12.32-1.9-24.67-2.49-36.97-1.74l-53.42,15.36c-12.52,3.6-25.37,4.19-38.16,1.76l-46.13-8.77-1.21-24.53,29.84,7.88c23.18,6.12,46.66,5.01,69.2-3.28l34.51-12.7c15.06-.91,30.19.05,45.26,2.87l51.62,9.66c10.3,1.93,20.65.9,30.58-3.03l51.34-20.33,1.21,24.53ZM913.78,261.62l-54.9-16.08c-10.62-3.11-21.47-3.29-32.08-.52l-53.15,13.86c-15.52,4.05-31.22,6.24-46.98,6.56l-36.84-9.84c-24.06-6.42-48.62-5.61-72.36,2.39l-30.57,10.3-.41-24.56,47.49-12.52c13.16-3.47,26.6-3.93,39.9-1.37l56.74,10.94c12.87-.26,25.71-1.85,38.42-4.76l51.95-11.88c16.21-3.71,32.71-3.35,48.92,1.07l43.48,11.84.41,24.56ZM925.22,362.3l-32.16-7.9c-24.99-6.14-50.36-5.04-74.77,3.24l-37.38,12.67c-16.27.9-32.6-.07-48.86-2.9l-55.67-9.7c-11.11-1.94-22.29-.92-33.05,3.01l-55.61,20.3-1.11-24.53,44.1-15.19c16.43-5.66,33.43-7.3,50.38-4.86l54.31,7.82c13.29,1.91,26.63,2.5,39.92,1.77l57.82-15.32c13.55-3.59,27.44-4.18,41.23-1.74l49.75,8.8,1.11,24.53ZM936.98,480.07l-60.91-15.95c-11.78-3.09-23.83-3.24-35.61-.45l-59.03,13.98c-17.23,4.08-34.67,6.31-52.16,6.67l-40.87-9.75c-26.69-6.37-53.95-5.5-80.33,2.55l-33.95,10.37-.41-24.56,52.73-12.63c14.62-3.5,29.53-3.99,44.29-1.46l62.96,10.81c14.29-.29,28.54-1.91,42.66-4.85l57.69-12c17.99-3.74,36.32-3.42,54.3.96l48.24,11.74.41,24.56ZM556.64,559.44l66.55,14.75c12.87,2.85,26,2.77,38.8-.25l64.14-15.14c18.73-4.42,37.7-6.99,56.75-7.7l44.65,8.95c29.16,5.84,58.85,4.44,87.48-4.14l36.87-11.04.74,24.55-57.3,13.67c-15.88,3.79-32.13,4.57-48.23,2.33l-68.72-9.57c-15.56.57-31.07,2.47-46.42,5.69l-62.71,13.13c-19.56,4.1-39.53,4.14-59.16.11l-52.7-10.79-.74-24.55Z"/>
</svg>