<?xml version="1.0" encoding="UTF-8"?>
<svg id="Layer_1" data-name="Layer 1" xmlns="http://www.w3.org/2000/svg" viewBox="0 0 1000 1000">
  <defs>
    <style>
      .cls-1 {
        fill: #fff;
      }
    </style>
  </defs>
  <circle class="cls-1" cx="500" cy="929.43" r="46.2"/>
  <path class="cls-1" d="M733.38,0h-466.75c-22.71,0-41.12,18.43-41.12,41.17v917.67c0,22.74,18.41,41.17,41.12,41.17h466.75c22.71,0,41.12-18.43,41.12-41.17V41.17c0-22.74-18.41-41.17-41.12-41.17ZM511,22.02c1.66,0,3,1.34,3,3s-1.34,3-3,3-3-1.34-3-3,1.34-3,3-3ZM465.5,43.04h90c2.49,0,4.5,2.02,4.5,4.5s-2.01,4.5-4.5,4.5h-90c-2.49,0-4.5-2.02-4.5-4.5s2.01-4.5,4.5-4.5ZM433.5,41.04c3.59,0,6.5,2.91,6.5,6.51s-2.91,6.51-6.5,6.51-6.5-2.91-6.5-6.51,2.91-6.51,6.5-6.51ZM500,981.98c-28.99,0-52.5-23.53-52.5-52.55s23.51-52.55,52.5-52.55,52.5,23.53,52.5,52.55-23.51,52.55-52.5,52.55ZM747.5,855.86H252.5V81.08h495v774.77Z"/>
</svg>