<?xml version="1.0" encoding="UTF-8"?>
<svg id="Layer_1" data-name="Layer 1" xmlns="http://www.w3.org/2000/svg" viewBox="0 0 749.28 749.28">
  <defs>
    <style>
      .cls-1 {
        fill: #fff;
      }
    </style>
  </defs>
  <path class="cls-1" d="M749.28,246.5v256.24c-4.75,15.21-25.55,15.38-29.15-.44l-.1-253.21c1.31-17.55,24.2-18.72,29.25-2.59Z"/>
  <path class="cls-1" d="M24.5,510.73c-9.12,8.01-23.94,1.56-24.5-10.57l.03-251.78c2.6-17.65,26.88-17.58,29.25-.03v252.56c.03,3.34-2.37,7.7-4.78,9.82Z"/>
  <path class="cls-1" d="M70.26,308.87c10.67-1.82,17.33,4.93,18.21,15.15,2.8,32.51-2.14,68.99-.03,101.92-1.96,19.71-28.25,20.6-29.99-1.46-2.54-32.25,1.94-67.81.04-100.41.61-6.94,4.37-13.93,11.78-15.19Z"/>
  <path class="cls-1" d="M672.66,308.87c11.15-1.9,17.39,5.49,18.21,15.9,2.53,32.27-1.94,67.8-.04,100.41-1.32,20.39-28.15,21.32-29.98.04-2.8-32.51,2.14-68.99.03-101.92.65-6.81,4.65-13.22,11.78-14.44Z"/>
  <path class="cls-1" d="M385.15,0c83.63,5.23,152.76,73.84,158.08,157.72v135.98h46.09c.27,0,4.49,1.4,5.07,1.67,4.68,2.25,7.53,7.93,8.03,12.95-3.22,68.85,9.86,140.95-15.16,206.6-31.29,82.09-109.75,139.96-197.61,145.92v59.19h54.32c2.02,0,6.81,3.53,8.18,5.31,7.67,10.03,1.21,23.42-11.14,23.94l-135.47-.21c-12.59-2.54-16.22-19.59-5.3-26.68.66-.43,4.79-2.37,5.13-2.37h54.32v-59.19c-85.41-5.63-162.36-60.54-195.16-139.38-28.3-68.03-14.33-142.73-17.63-214.64.5-4.66,3.79-9.46,8.06-11.42.63-.29,4.79-1.69,5.05-1.69h46.08v-140.48C213.27,71.43,282.54,4.9,364.17,0h20.98ZM292.06,176.27c-16.13,2.32-17.4,25.08-1.63,28.96l167.77.07c17.05-3.42,14.93-27.83-2.26-29.21l-163.88.19ZM292.06,249.7c-16.13,2.32-17.4,25.08-1.63,28.96l167.77.07c17.05-3.42,14.93-27.83-2.26-29.21l-163.88.19ZM573.21,322.93h-28.85l-1.16,2.58c-3.15,73.34,14.37,143.34-31.57,206.69-71.8,99.01-221.08,91.87-282.93-13.49-35.1-59.78-19.17-127.07-22.58-193.2l-1.16-2.58h-28.85l-.03,113.54c1.64,91.89,67.43,172.26,157.37,191.04,122.56,25.59,237.13-66.82,239.8-191.04l-.03-113.54ZM292.06,323.12c-16.13,2.32-17.4,25.08-1.63,28.96l167.77.07c17.05-3.42,14.93-27.83-2.26-29.21l-163.88.19ZM289.79,397.28c-16.37,5.45-12.72,28.06,4.33,29.04h161.08c17.38-1.01,20.5-24.31,3.69-29.15l-169.09.11Z"/>
</svg>