<?xml version="1.0" encoding="UTF-8"?>
<svg id="Layer_1" data-name="Layer 1" xmlns="http://www.w3.org/2000/svg" viewBox="0 0 688 999">
  <defs>
    <style>
      .cls-1 {
        fill: #fff;
      }
    </style>
  </defs>
  <path class="cls-1" d="M0,0v999h688V0H0ZM385.22,74.94l43.8,146.19c1.17,4.01,2.1,7.74,2.78,11.21.68,3.47,1.17,6.72,1.46,9.74h.88c.39-3.22.95-6.64,1.68-10.25.73-3.61,1.68-7.37,2.86-11.28l43.51-145.61h49.51l-72.36,210.06h-53.61l-71.48-210.06h50.98ZM187.18,103.06c20.51-21.09,47.56-31.64,81.15-31.64,11.23,0,21.26.78,30.1,2.34,8.84,1.56,18.04,4.1,27.61,7.62l-13.92,38.23c-7.23-2.64-14.16-4.54-20.8-5.71-6.64-1.17-13.82-1.76-21.53-1.76-17.19,0-32.08,6.03-44.68,18.09-12.6,12.06-18.9,28.4-18.9,49s5.49,37.94,16.48,49.95,26.05,18.02,45.19,18.02c4.98,0,11.3-.81,18.97-2.42,7.67-1.61,15.6-4.27,23.8-7.98l16.85,37.94c-11.04,4.88-21.73,8.42-32.08,10.62-10.35,2.2-21.53,3.3-33.54,3.3-32.72,0-58.47-9.16-77.27-27.47-18.8-18.31-28.2-44.51-28.2-78.59,0-31.93,10.25-58.45,30.76-79.54ZM627.5,891H60.5v-27h567v27ZM627.5,819H60.5v-27h567v27ZM627.5,747H60.5v-27h567v27ZM627.5,675H60.5v-27h567v27ZM627.5,603H60.5v-27h567v27ZM627.5,531H60.5v-27h567v27ZM627.5,459H60.5v-27h567v27Z"/>
</svg>