<?xml version="1.0" encoding="UTF-8"?>
<svg id="Layer_3" xmlns="http://www.w3.org/2000/svg" version="1.1" viewBox="0 0 997.89 998">
  <!-- Generator: Adobe Illustrator 29.5.0, SVG Export Plug-In . SVG Version: 2.1.0 Build 137)  -->
  <defs>
    <style>
      .st0 {
        fill: #fff;
      }
    </style>
  </defs>
  <path class="st0" d="M190.55,634.24c.95,1.07,23.4-10.07,26.2-11.56,27.13-14.39,53.61-32.18,80.85-47.01,20.1-10.94,40.6-21.54,61.46-30.93l1.42-14.5L36.53,231.03l11.59-12.59c2.09-.51,4.21,6.4,10.91,2.89,1.21-.63,12.24-12.78,12.51-13.66,2.06-6.77-3.8-9.08-3.8-9.86L220.17,33.25c2.96,2.86,5.06,5.09,9.37,3.23,1.89-.82,13.22-13.64,13.7-15.55.92-3.65-1.97-6.15-4.36-8.37L250.44,0l168.3,154.91,14.92-20.03c14.2-16.28,31.47-30.38,51.85-38.24l-9.04,103.2.51,9.54,206.9,190.81,117.76-49.84c-5.09,40.99-26.27,77.57-56.9,104.67l-.47,2.02,253.62,233.22-10.63,12.38c-1.43.25-5.57-6.29-11.52-1.53-3.68,7.56-18.98,13.42-8.41,21.73v2l-151.95,163.03c-2.67-3.19-6.43-4.19-10.27-2.02-3.6,7.75-19.68,13.71-8.92,22.22.68.76.4,1.23,0,2-.63,1.23-11.08,11.17-12,11.01l-343.4-317.13c-.84-.88-1.66-.96-2.81-.8-.94.14-16.29,7.25-17.26,8.01-.91.72-1.59,1.13-1.56,2.46-2.93,25.85-6.65,51.6-11.43,77.16-5.2,27.77-14.23,57.37-17.66,85.03-.97,7.83-1.49,15.6-1.14,23.51,16.83-7.33,29.71-11.03,48.15-7.38,77.86,15.42,62.33,111.88,24.3,159.88-30.99,39.12-90.98,67.05-132.4,25.74-48.59-48.45-6.01-124.29,9.1-178.24,11.13-39.72,16.36-77.88,11.45-119.17-1.08-9.04-8.4-38.85-6.47-44.99.39-1.24,5.16-6.52,4.58-6.98-55.23,4.93-101.84,26.1-146.71,57.15-30.2,20.9-68.33,58.12-103.34,66.8-29.12,7.22-61.07,1.82-80.59-22.36-57.1-70.77,41.39-198.27,125.7-175.03,25.53,7.04,47.88,37.55,47.88,63.87v15.6l-.03.04ZM259.72,36.42c-2.42.74-14.74,15.01-14.74,17.42,0,4.21,9.98,13.92,15.59,10.62,2.24-1.32,13.19-13.25,13.54-15.74.78-5.56-9.19-13.89-14.39-12.31h0ZM223.21,41.06L77.27,199.08l238.62,220.37,145.94-158.03L223.21,41.06ZM290.42,66.65c-2.83,6.93-18.23,13.06-11.22,21.36.36.42,6.58,5.88,7,6.08,2.4,1.1,5.27.91,7.59-.43.74-.43,11.14-11.84,11.57-12.58,4.19-7.24-8.97-17.88-14.94-14.43ZM324.17,94.79c-3.38.71-15.69,14.39-15.85,17.53-.14,2.62,8.29,11.09,10.64,11.5,2.03.35,3.29.05,5.04-.97,2.22-1.29,13.19-13.26,13.54-15.73.68-4.91-8.81-13.29-13.36-12.33h-.01ZM353.33,124c-1.19.37-13.64,14.46-13.77,16.5-.24,3.74,8.48,12.27,11.51,12.46,3.85.24,17.32-14,17.7-16.61.89-6.15-9.04-14.34-15.44-12.34h0ZM371.99,173.94c5.6,2.59,6.7,9.32,14.17,7.04,1.55-.47,12.48-12.2,13.27-13.9,2.9-6.23-7.31-15.86-13.87-13.87-2.89.88-17.7,15.75-13.57,20.73ZM416.72,182.37c-1.48.52-13.87,14.7-13.83,17.48.05,4.26,10.52,14.91,16.71,9.55,1.21-1.05,10.24-10.96,11-12.15,4.73-7.36-7.71-17.03-13.88-14.88ZM447.99,210.59c-1.19.36-13.56,14.24-13.8,15.44-.41,2.1-.21,4.2.93,6.08.41.67,8.87,7.39,9.69,7.51,2.74.4,4.56-.89,6.52-2.51,1.31-1.09,10.84-12.16,11.03-13.15,1.25-6.45-8.03-15.26-14.37-13.36h0ZM88.57,221.67c-2.24.68-14.74,15.15-14.74,17.42,0,4.21,9.98,13.92,15.59,10.62,2.09-1.23,13.25-13.55,13.56-15.71.79-5.31-9.3-13.89-14.42-12.33h.01ZM482.18,238.84c-3.4.16-15.81,13.01-16.59,15.56-1.92,6.33,7.75,15.26,14.46,11.42.88-.5,12.06-12.97,12.33-13.85,1.47-4.85-6.22-13.31-10.2-13.13h0ZM120.78,251.88c-2.4.73-14.27,13.66-14.53,16.55-.38,4.17,8.23,11.5,11.67,11.93,2.11.26,3.63-.79,5.22-1.98,1.31-.98,11.88-13.22,12.04-14.18.99-5.73-8.28-14.19-14.4-12.33h0ZM508.38,266.98c-.89.27-12.25,12.31-12.84,13.32-3.41,5.89,5.95,15.19,10.8,15.41,2.32.1,14.3-11.23,15.48-13.28,4.61-8.04-6.45-17.56-13.44-15.45ZM635.53,423.81l-163.45-151.93-144.54,157.34,97.98,90.2,4.91-5.22,205.1-90.39ZM153.03,280.01c-2.87.52-15.3,14.21-15.69,16.68-.52,3.32,7.79,11.91,10.46,12.37,2.03.35,3.29.05,5.04-.97,2.07-1.2,13.25-13.56,13.57-15.71.64-4.23-8.86-13.2-13.39-12.37h0ZM541.62,296.14c-1.08.32-9.1,8.39-10.3,9.88-2.84,3.52-6.5,6.88-3.58,11.67.44.72,8.8,7.33,9.68,7.48,2.03.35,3.29.05,5.04-.97,2.08-1.21,12.77-13.9,13.03-16.02.58-4.68-8.83-13.53-13.87-12.05h0ZM182.15,309.22c-1.02.36-13.61,14.52-13.74,16.52-.25,3.83,8.14,12.18,11.63,12.52s14.15-11.27,15.99-14.15c.71-1.11,1.51-2.19,1.58-3.57-1.91-5.15-9.24-13.49-15.46-11.32h0ZM573.81,353.04c3.05-6.16,16.78-12.72,11.87-20.82-.26-.43-7.1-6.32-7.56-6.52-2.41-1.1-5.25-.9-7.59.43-.74.42-11.14,11.84-11.57,12.58-3.99,6.89,8.87,18.67,14.85,14.34h0ZM214.42,338.45c-3.97,1.21-16.69,15.34-13.29,20.94.3.49,8.23,6.87,9.08,7.04,2.2.42,4.09.19,6.06-.94,1.24-.71,12.35-13.62,12.54-14.7.98-5.66-9.26-13.9-14.4-12.34h0ZM601.59,354.66c-.73.59-10.34,11.08-10.81,11.82-5.43,8.62,7.62,18.86,14.11,15.1.74-.43,11.14-11.83,11.57-12.58,4.69-8.14-9.23-18.91-14.86-14.35h-.01ZM245.62,367.66c-1.9.57-13.91,14.61-13.88,17.43.04,3.13,8.51,11.34,11.73,11.54,3.42.22,14.07-11.17,15.98-14.14.7-1.09,1.5-2.08,1.5-3.47-2.3-5.5-8.62-13.38-15.33-11.37h0ZM621.74,404.41c.32.4,7.3,6.59,7.77,6.81,1.69.78,3.55.87,5.31.33,2.48-.76,14.18-13.66,14.63-16.65.65-4.29-9.11-13.66-14.2-12.17-1.5.44-13.51,13.23-14.31,14.95-.97,2.1-.65,4.94.8,6.74h0ZM276.84,395.83c-1,.3-13.57,14.3-13.8,15.44-1.22,6.28,7.99,14.5,13.35,13.38,2.16-.45,14.43-13.46,14.82-15.46,1.25-6.45-8.03-15.25-14.37-13.36h0ZM308.04,425.04c-1.56.47-13.54,13.94-13.8,15.44-1.03,5.96,8.16,14.31,14.66,10.58,1.47-.84,12.31-13.39,12.54-14.7,1-5.77-7.39-13.15-13.4-11.32h0ZM337.24,452.23c-.89.27-12.33,12.45-12.84,13.32-3.41,5.89,5.95,15.19,10.8,15.41,4.09.18,19.78-15.53,15.92-21.89-.3-.49-8.31-6.89-9.08-7.04-1.44-.28-3.39-.22-4.79.2h-.01ZM728.87,469.33c-1.54.47-14.41,15.08-14.65,16.64-.69,4.4,8.49,13.88,14.5,10.4,1.84-1.07,13.09-14.09,13.38-15.88.68-4.34-8.09-12.72-13.22-11.15h-.01ZM370.47,481.38c-2.02.59-14.45,14.3-14.83,16.49-1.03,5.9,9.91,14.92,15.67,11.58,1.7-.99,12.19-13.03,12.51-14.68,1.16-5.97-7.64-15.07-13.36-13.39h0ZM489.56,578.88l75.86,69.35,144.48-157.32-8.96-8.24-1.99-.05-209.4,96.26h.01ZM760.08,524.2c.72-.58,10.32-11.05,10.81-11.82,1.93-3.03,2.4-6,0-8.96-1.27-1.56-8.19-7.16-9.98-7.18-3.55-.05-14.09,11.15-16.08,14.23-.7,1.09-1.5,2.08-1.5,3.47,2.13,5.58,10.39,15.38,16.76,10.27h-.01ZM721.43,501.19l-145.93,158.09,238.79,220.42,145.93-158.09-238.79-220.42ZM400.66,510.62c-.89.27-12.33,12.45-12.84,13.32-3.77,6.51,5.28,13.29,10.62,15.59,3.61,0,16.54-13.37,16.69-17.58.19-5.31-8.6-13.09-14.47-11.33h0ZM790.27,526.72c-2.04.62-14.2,14.36-14.37,16.37-.32,3.91,8.35,12.36,11.18,12.65,3.93.41,17.1-13.85,17.59-16.69.99-5.73-8.28-14.19-14.4-12.33ZM823.51,582.59c2.02-4.96,12.2-10.44,12.47-15.3.22-3.96-8.11-12.34-11.75-12.57-3.42-.22-14.07,11.17-15.98,14.14-.7,1.09-1.5,2.08-1.5,3.47,2.13,5.58,10.39,15.38,16.76,10.27h0ZM852.7,584.1c-2.08.63-14.6,14.2-14.84,16.45-.49,4.51,9.11,13.68,14.16,12.14,2.21-.68,14.83-14.42,15.1-16.25.82-5.66-9.03-13.97-14.42-12.33h0ZM457.34,593.98c1.83,9.64,15.56-4.5,14.08-6.05l-14.08,6.05ZM497.24,597.24c-2.89.31-15.19,13.21-15.72,16.43-.98,5.95,8.99,15.37,15.65,11.55,1.24-.71,12.35-13.62,12.54-14.7.84-4.87-8.1-13.76-12.46-13.29h-.01ZM100.72,598.28c-38.25,4.58-78.21,64.13-51.1,98.86,35.06,44.91,130.02-19.34,100.19-76.03-9.94-18.89-28.57-25.29-49.09-22.83h0ZM883.9,613.3c-1.41.43-11.88,11.67-12.84,13.32-4.36,7.5,5.14,12.77,10.63,15.59,3.61,0,16.54-13.37,16.69-17.58.19-5.3-8.61-13.12-14.47-11.34h-.01ZM525.46,626.35c-1.02.36-13.62,14.53-13.75,16.52-.26,4,8.14,11.85,11.7,12.26,4.08.47,17.27-14.25,17.48-17.44.36-5.53-9.52-13.4-15.43-11.34ZM916.12,642.49c-2.04.62-14.53,14.35-14.85,16.47-.61,4.1,10.67,16.28,15.7,11.57,2.04-3.13,13.19-13.11,13.56-15.71.77-5.32-9.29-13.89-14.42-12.33h0ZM558.75,654.55c-2.28.48-15.33,14.42-15.68,16.66-.69,4.41,8.49,13.88,14.5,10.4,2-1.16,13.07-13.82,13.28-15.79.46-4.24-7.29-12.28-12.1-11.26h0ZM944.89,671.79c-2.17,5.13-11.96,10.16-12.46,15.28-.63,6.5,9.88,15.4,16.25,11.15.98-.65,10.5-11.1,11.07-12.08,4.65-8.04-8.98-19.11-14.87-14.35h.01ZM599.99,688.89c-.34-.42-7.54-6.38-8.02-6.58-2.97-1.29-4.95-.79-7.3,1.25-1.22,1.05-10.23,10.95-11,12.15-4.05,6.29,7.1,16.59,12.82,14.85,1.05-.32,12.95-12.15,13.67-13.52,1.37-2.63,1.82-5.68-.17-8.14h0ZM619.14,711.95c-1.86.56-14.36,14.74-14.56,16.55-.42,3.86,8.27,12.14,11.36,12.48,3.97.43,17.19-13.79,17.61-16.7.82-5.67-8.5-14.12-14.41-12.34h0ZM636.85,761.79c.31.42,7.28,6.62,7.76,6.83,1.74.74,4.62.97,6.37.36.87-.31,12.18-12.73,12.61-13.55,2.87-5.45-2.44-11.26-7-13.88-3.23-1.86-5.6-2.12-8.49.4-1.07.93-10.44,11.28-10.97,12.18-1.3,2.21-1.87,5.48-.27,7.66h-.01ZM681.55,769.34c-2.01.61-14.63,14.45-14.84,16.45,1.09,5.78,9.61,15.16,15.69,11.6,1.43-.84,13.41-14.6,13.57-15.72.69-4.74-9.48-13.83-14.42-12.33ZM712.76,798.54c-2.37.72-13.66,14.01-13.89,16.4-.45,4.69,4.96,9.46,8.79,11.47,5.2,2.73,9.01-2.69,12.47-6.39,3.57-3.82,9.22-9.05,6.08-14.2-.46-.75-8.84-7.34-9.68-7.48-1.23-.21-2.57-.16-3.77.21h0ZM744.99,827.7c-2,.59-14.54,14.39-14.86,16.5-.67,4.49,9.45,13.82,14.41,12.36,2.18-.64,14.75-15.18,14.75-17.45,0-4.04-9.53-12.81-14.31-11.41h.01ZM400.71,831.82c-69.09,8.6-75.48,141.82,2.23,120.02,39.65-11.12,68.66-83.04,30.56-111.05-8.62-6.34-22.15-10.3-32.79-8.97h0ZM773.75,857.04c-.82.67-10.3,11-10.81,11.82-5.43,8.62,7.64,18.86,14.11,15.11.85-.49,11.63-12.34,12-13.15,3.66-8.02-10-18.11-15.29-13.77h-.01Z"/>
</svg>