<?xml version="1.0" encoding="UTF-8"?>
<svg id="Layer_1" xmlns="http://www.w3.org/2000/svg" version="1.1" viewBox="0 0 750 750">
  <!-- Generator: Adobe Illustrator 29.4.0, SVG Export Plug-In . SVG Version: 2.1.0 Build 152)  -->
  <defs>
    <style>
      .st0 {
        fill: #fff;
      }
    </style>
  </defs>
  <line class="st0" x1="749.72" y1="750.01" x2="749.72" y2="749.26"/>
  <path class="st0" d="M.75,437.7c-.24.06-.49.1-.75.12"/>
  <path class="st0" d="M0,311.13c.25.02.5.07.75.13"/>
  <path class="st0" d="M749.72,361.14c.36,9.23.39,20,0,29.22-.36,8.4-1.37,17.9-2.34,26.51-3.34,29.63-10.91,58.42-20.13,86.63h-152.79c11.16-74.64,12.68-150.72,4.4-225.81-1.34-12.17-3.32-24.34-5.15-36.43h150.92c3.01,5.71,5.29,12.65,7.31,18.91,10.37,32,16.46,67.53,17.78,100.97h0Z"/>
  <path class="st0" d="M352.01,241.26v262.24h-128.82c-1.8-11.85-3.79-23.76-5.15-35.68-7.21-63.38-7.05-129.77.75-193.12,1.38-11.17,3.39-22.33,5.15-33.44h128.07Z"/>
  <path class="st0" d="M526.52,241.26c3.4,20.96,6.46,42.11,8.23,63.32,4.65,55.38,3.75,114.07-3.09,169.23-1.23,9.91-2.98,19.81-4.4,29.69h-128.82V241.26h128.08Z"/>
  <path class="st0" d="M184.99,549.95c13.97,64.34,36.83,128.4,77.14,180.95.11.58-.68.45-1.12.38-5.74-.89-16.45-5.42-22.28-7.69-72.81-28.41-136.74-81.38-178.83-147.02-5.46-8.52-10.97-17.31-14.96-26.61h140.06,0Z"/>
  <path class="st0" d="M705.53,549.95c1.24,1.11-14.76,26.25-16.46,28.86-40.19,61.45-98.37,110.57-165.78,139.85-8.08,3.51-25.86,11.4-33.83,12.61-.44.07-1.23.2-1.12-.38,40.25-52.59,63.09-116.62,77.14-180.95h140.06-.01Z"/>
  <path class="st0" d="M185.74,194.81H47.18c4.94-11,11.76-21.32,18.56-31.26C112.85,94.74,182.62,42.77,262.13,17.23l-25.59,39.21c-23.76,43.18-39.94,90.28-50.8,138.36h0Z"/>
  <path class="st0" d="M703.28,194.81h-138.56c-12.93-55.72-32.02-110.72-63.35-158.78l-13.04-18.79c80.02,25.74,150.05,78.33,197.14,147.81l17.81,29.76h0Z"/>
  <path class="st0" d="M352.01,549.95v194.81c-26.08-9.85-46.5-31.92-62.03-54.46-20.48-29.72-36.01-66.38-46.77-100.81-4.05-12.95-7.79-26.26-10.29-39.54h119.09Z"/>
  <path class="st0" d="M517.54,549.95c-4.8,23.15-11.9,46.24-20.41,68.37-9.46,24.6-21.48,49.78-36.35,71.53-15.59,22.81-36.08,44.68-62.33,54.9v-194.81h119.09Z"/>
  <path class="st0" d="M352.01,4.5v190.31h-118.34c10.64-43.1,25.77-87.2,49.12-125.06,16.49-26.74,39.06-53.96,69.22-65.25Z"/>
  <path class="st0" d="M516.79,194.81h-118.34V4.5c3.9,1.16,7.67,2.94,11.25,4.85,22.86,12.25,42.86,36.42,56.47,58.15,24.19,38.63,39.7,83.17,50.62,127.31Z"/>
  <path class="st0" d="M1.03,361.14c1.32-33.44,7.41-68.97,17.78-100.97,2.02-6.26,4.3-13.2,7.31-18.91h150.92c-1.83,12.09-3.81,24.26-5.15,36.43-8.28,75.09-6.76,151.17,4.4,225.81H23.5c-9.22-28.21-16.79-57-20.13-86.63-.97-8.61-1.98-18.11-2.34-26.51-.39-9.22-.36-19.99,0-29.22h0Z"/>
</svg>